<mxfile host="app.diagrams.net">
  <diagram id="devops-aws-demo-architecture-icons" name="DevOps AWS Demo Architecture (Icons)">
    <mxGraphModel dx="1000" dy="600" grid="1" gridSize="10" guides="1" tooltips="1" connect="1" arrows="1" fold="1" page="1" pageScale="1" pageWidth="827" pageHeight="1169" math="0" shadow="0">
      <root>
        <mxCell id="0" />
        <mxCell id="1" parent="0" />
        <!-- User Icon -->
        <mxCell id="2" value="&lt;img src=&quot;https://cdn.jsdelivr.net/gh/twitter/twemoji@14.0.2/assets/svg/1f464.svg&quot; width=&quot;32&quot; height=&quot;32&quot;&gt;&lt;br&gt;User" style="shape=label;verticalLabelPosition=bottom;verticalAlign=top;html=1;whiteSpace=wrap;align=center;" vertex="1" parent="1">
          <mxGeometry x="40" y="180" width="80" height="60" as="geometry" />
        </mxCell>
        <!-- GitHub Icon -->
        <mxCell id="3" value="&lt;img src=&quot;https://raw.githubusercontent.com/simple-icons/simple-icons/develop/icons/github.svg&quot; width=&quot;32&quot; height=&quot;32&quot;&gt;&lt;br&gt;GitHub" style="shape=label;verticalLabelPosition=bottom;verticalAlign=top;html=1;whiteSpace=wrap;align=center;" vertex="1" parent="1">
          <mxGeometry x="180" y="180" width="80" height="60" as="geometry" />
        </mxCell>
        <!-- GitHub Actions Icon -->
        <mxCell id="4" value="&lt;img src=&quot;https://raw.githubusercontent.com/simple-icons/simple-icons/develop/icons/githubactions.svg&quot; width=&quot;32&quot; height=&quot;32&quot;&gt;&lt;br&gt;GitHub Actions" style="shape=label;verticalLabelPosition=bottom;verticalAlign=top;html=1;whiteSpace=wrap;align=center;" vertex="1" parent="1">
          <mxGeometry x="320" y="180" width="110" height="60" as="geometry" />
        </mxCell>
        <!-- Docker Icon -->
        <mxCell id="5" value="&lt;img src=&quot;https://raw.githubusercontent.com/simple-icons/simple-icons/develop/icons/docker.svg&quot; width=&quot;32&quot; height=&quot;32&quot;&gt;&lt;br&gt;Docker Hub" style="shape=label;verticalLabelPosition=bottom;verticalAlign=top;html=1;whiteSpace=wrap;align=center;" vertex="1" parent="1">
          <mxGeometry x="480" y="180" width="100" height="60" as="geometry" />
        </mxCell>
        <!-- AWS EC2 Icon -->
        <mxCell id="6" value="&lt;img src=&quot;https://raw.githubusercontent.com/awslabs/aws-icons-for-plantuml/v14.0/dist/AmazonEC2.png&quot; width=&quot;32&quot; height=&quot;32&quot;&gt;&lt;br&gt;AWS EC2" style="shape=label;verticalLabelPosition=bottom;verticalAlign=top;html=1;whiteSpace=wrap;align=center;" vertex="1" parent="1">
          <mxGeometry x="640" y="180" width="120" height="60" as="geometry" />
        </mxCell>
        <!-- User Icon (output) -->
        <mxCell id="7" value="&lt;img src=&quot;https://cdn.jsdelivr.net/gh/twitter/twemoji@14.0.2/assets/svg/1f464.svg&quot; width=&quot;32&quot; height=&quot;32&quot;&gt;&lt;br&gt;User" style="shape=label;verticalLabelPosition=bottom;verticalAlign=top;html=1;whiteSpace=wrap;align=center;" vertex="1" parent="1">
          <mxGeometry x="800" y="180" width="80" height="60" as="geometry" />
        </mxCell>
        <!-- Edges -->
        <mxCell id="8" style="edgeStyle=orthogonalEdgeStyle;rounded=0;orthogonalLoop=1;jettySize=auto;html=1;endArrow=block;endFill=1;strokeColor=#6c8ebf;" edge="1" parent="1" source="2" target="3">
          <mxGeometry relative="1" as="geometry" />
        </mxCell>
        <mxCell id="9" style="edgeStyle=orthogonalEdgeStyle;rounded=0;orthogonalLoop=1;jettySize=auto;html=1;endArrow=block;endFill=1;strokeColor=#d6b656;" edge="1" parent="1" source="3" target="4">
          <mxGeometry relative="1" as="geometry" />
        </mxCell>
        <mxCell id="10" style="edgeStyle=orthogonalEdgeStyle;rounded=0;orthogonalLoop=1;jettySize=auto;html=1;endArrow=block;endFill=1;strokeColor=#9673a6;" edge="1" parent="1" source="4" target="5">
          <mxGeometry relative="1" as="geometry" />
        </mxCell>
        <mxCell id="11" style="edgeStyle=orthogonalEdgeStyle;rounded=0;orthogonalLoop=1;jettySize=auto;html=1;endArrow=block;endFill=1;strokeColor=#82b366;" edge="1" parent="1" source="5" target="6">
          <mxGeometry relative="1" as="geometry" />
        </mxCell>
        <mxCell id="12" style="edgeStyle=orthogonalEdgeStyle;rounded=0;orthogonalLoop=1;jettySize=auto;html=1;endArrow=block;endFill=1;strokeColor=#b85450;" edge="1" parent="1" source="6" target="7">
          <mxGeometry relative="1" as="geometry" />
        </mxCell>
      </root>
    </mxGraphModel>
  </diagram>
</mxfile> 